<svg xmlns="http://www.w3.org/2000/svg" viewBox="0 0 1668 1453"><defs><style>.a{fill:#fff;}</style></defs><path class="a" d="M1620.47,226.5c-183,45.07-320.15,75.73-407.64,94.68-131,28.37-229.15,47.52-326.84,130.5a532.65,532.65,0,0,0-94,104.8l36.12,58.43c-12.53-16.59-41.13-52.47-76.5-79.1a222,222,0,0,0-34.29-21.73c-13-6.6-26.74-11.23-41.37-15.72l-79.7-65.43Q613.6,476.85,631,520.79a330.37,330.37,0,0,0,2.81,52,338.28,338.28,0,0,0,16.72,68.89c.07,1.09.15,2.15.22,3.24l-.13,0a47.9,47.9,0,0,1-8.21.77c-3.47,0-118.7,34.86-168,70.83C413.47,761,240.62,962.27,46.53,1272.64,65.6,1259.83,360,1062.06,428.77,1017.89c16.37-10.51,24.58-15.7,26.86-17.09,30.86-18.84,61.92-37.35,92.62-56.46,3.4-2.12,4.45-8.06,7.64-10.88,5-4.46,10.63-10.62,16.58-11,18.19-1.28,28.94-11.46,37.1-27.35,4.29-8.34,9.27-10.14,12.76-11.83,11.13-5.39,18.54,1.39,29.22-1.83,5.58-1.68,12.83-6.32,19.18-19.85,20.94,14.94,32.43,14.73,39.09,11.59,8.76-4.13,8.89-13.19,20.12-16.93,8.7-2.91,12.5,1.25,24.85-.66,10.83-1.67,17.76-6.4,20.09-7.63,10.57-5.59,37,2.33,105.46,59.06q42.31,64.46,87.52,129.82c99,143,199,275.19,298.13,397-119.32-243.09-200.24-401.62-237.72-462.7-5.06-8.26-20.41-32.79-13.47-42.84,11.07-16,71.71,15.2,106,33.1,66.62,34.81,166.77,88.25,300.08,163.18-228.25-152.75-394.88-268-432.16-298.19A154.4,154.4,0,0,1,956.86,792c-19.16-28.53-25.29-58.52-27.5-78.74A75.42,75.42,0,0,0,946,716.84c11.1,1.11,23,2.3,28.81-4.49,8.12-9.52-1.59-27.89,5.05-31.89,5.14-3.09,12,7.29,18,4.34,8.45-4.14,1-27.62,14.52-36.65a3,3,0,0,1,1.84-1.06c22.92-2.42,38.73-15.1,48.76-36.72.8-1.72,5.67-.56,8-2,13.78-8.38,27.38-17.08,41-25.76,6.34-4,12.52-8.37,18.87-12.4,11.36-7.22,22.86-14.18,34.16-21.5,9.74-6.3,12-7.8,15-10.85a59,59,0,0,0,13.2-21.53C1198,503.3,1305.78,427.25,1620.47,226.5Z"/></svg>