<svg xmlns="http://www.w3.org/2000/svg" viewBox="0 0 401.76 141.6"><defs><style>.a{fill:#fff;}</style></defs><path class="a" d="M112.59,75a8.61,8.61,0,0,0-2.45-2.12,8.76,8.76,0,0,0,2.31-2.27A9.66,9.66,0,0,0,114.06,65V62c0-6.91-3.24-10.27-11.82-10.27H66.45a2.76,2.76,0,0,0-.8.11,21.48,21.48,0,0,1-1-2.1c-.56-1.35-3.08-7.54-.49-13.47a15.84,15.84,0,0,1,6.09-6.77C82.88,21,102.68,9.75,105.05,8.4c-3.17.77-31,7.61-48.21,16-.58.28-12.6,6.26-14.21,12.17-.69,2.51-2.2,4.79-2.61,7.36s-1.89,3.7-5,3.09a18.16,18.16,0,0,0-9.56.91,10,10,0,0,0-4.4,3.81A24,24,0,0,1,17,53.39a24.6,24.6,0,0,1-5,.92l9.9,2.45q3.78,1.62,7.66,3.22c2.8,1.16,5.58,2.28,8.34,3.38l-7.36-1.58c-1.22,2.38-3.1,5.88-5.6,10-2.32,3.83-3.63,5.66-4.35,6.83-3,4.88-3.21,11.06-1.19,23.44a198.71,198.71,0,0,0,7.72,31.11A80.11,80.11,0,0,1,29,106.7c1.94-8,3.72-15.34,9.74-22.26A44.11,44.11,0,0,1,55.18,73a41.63,41.63,0,0,0,9.4,2.43v18a1.65,1.65,0,0,0,1.87,1.86h36.91c4.17,0,6.93-1.06,8.65-3a7.85,7.85,0,0,0,1.25-1.89,13.73,13.73,0,0,0,1.11-5.92V80.91A9.36,9.36,0,0,0,112.59,75ZM74.85,60.32h25.46c3.23,0,4.6,1.18,4.6,3.73v2.12a3.71,3.71,0,0,1-.53,2.13c-.69,1-2.13,1.54-4.82,1.54H74V61.13a.7.7,0,0,1,.37-.72A1,1,0,0,1,74.85,60.32ZM100.37,86.7H74.85c-.56,0-.81-.25-.81-.81V76.62H99.56c4.17,0,5.41,1.37,5.41,3.92V82.9a6.08,6.08,0,0,1-.09,1.09c-.3,1.56-1.31,2.41-3.28,2.64A11.36,11.36,0,0,1,100.37,86.7Z"/><path class="a" d="M155.2,51.73c12.63,0,17.43,4.48,17.43,16.43v10.7c0,11.94-4.8,16.42-17.43,16.42H136c-12.58,0-17.37-4.48-17.37-16.42V68.16c0-11.95,4.79-16.43,17.37-16.43ZM128.06,78.17c0,6.54,1.87,8.46,8.28,8.46h18.48c6.42,0,8.28-1.92,8.28-8.46V68.84c0-6.53-1.86-8.46-8.28-8.46H136.34c-6.41,0-8.28,1.93-8.28,8.46Z"/><path class="a" d="M185.69,51.73a1.19,1.19,0,0,1,1.37,1.37V77.92c0,6.6,1.87,8.53,8.28,8.53h25.21a1.19,1.19,0,0,1,1.37,1.37v6.09a1.19,1.19,0,0,1-1.37,1.37H195c-12.58,0-17.37-4.48-17.37-16.42V53.1A1.2,1.2,0,0,1,179,51.73Z"/><path class="a" d="M260.38,51.73c.93,0,1.43.44,1.43,1.37v6.1c0,.93-.5,1.37-1.43,1.37H240.83V93.91c0,.94-.43,1.37-1.36,1.37h-6.79a1.19,1.19,0,0,1-1.37-1.37V60.57H211.77c-.93,0-1.43-.44-1.43-1.37V53.1c0-.93.5-1.37,1.43-1.37Z"/><path class="a" d="M299.59,51.73c12.63,0,17.42,4.48,17.42,16.43v10.7c0,11.94-4.79,16.42-17.42,16.42H280.35C267.78,95.28,263,90.8,263,78.86V68.16c0-11.95,4.79-16.43,17.36-16.43ZM272.45,78.17c0,6.54,1.87,8.46,8.28,8.46h18.48c6.41,0,8.28-1.92,8.28-8.46V68.84c0-6.53-1.87-8.46-8.28-8.46H280.73c-6.41,0-8.28,1.93-8.28,8.46Z"/><path class="a" d="M333.13,51.73c4.48,0,5.41.75,7.22,3.67L363.5,85.76a.86.86,0,0,0,.81.44h.56c.31,0,.5-.19.5-.62V53.1a1.2,1.2,0,0,1,1.37-1.37h6.53a1.19,1.19,0,0,1,1.37,1.37V88.81c0,5-1.8,6.47-5.6,6.47h-5.35c-4.48,0-5.42-.74-7.22-3.67L333.25,61.25a.9.9,0,0,0-.81-.44h-.56c-.37,0-.49.19-.49.63V93.91A1.19,1.19,0,0,1,330,95.28h-6.54a1.19,1.19,0,0,1-1.37-1.37V58.2c0-5,1.75-6.47,5.54-6.47Z"/><path class="a" d="M388.4,51.73a1.19,1.19,0,0,1,1.36,1.37V93.91c0,.94-.43,1.37-1.36,1.37h-6.73a1.19,1.19,0,0,1-1.37-1.37V53.1a1.2,1.2,0,0,1,1.37-1.37Z"/><path class="a" d="M253,108h3.57c2.17,0,3.39,1.22,3.39,2.92,0,2.38-1.77,3.54-4.24,3.54H253.5l-.86,4.09h-1.85Zm.79,5h1.85c1.5,0,2.37-.58,2.37-1.91,0-1-.64-1.52-1.84-1.52h-1.65Z"/><path class="a" d="M267.32,113.83c0,1.92-1.11,4.82-4.32,4.82a2.87,2.87,0,0,1-3.11-3.21c0-2.13,1.33-4.93,4.27-4.93A3,3,0,0,1,267.32,113.83Zm-5.57,1.62c0,1.16.52,1.78,1.43,1.78,1.62,0,2.28-2.11,2.28-3.55,0-1.12-.47-1.75-1.44-1.75C262.46,111.93,261.75,114,261.75,115.45Z"/><path class="a" d="M269.84,110.66c.1,2.83.14,5.1.11,6h0c.36-.88.83-2,2.74-6h1.72c.1,4.16.1,5.24,0,6h0c.33-.8,1-2.46,2.75-6h1.86l-4,7.84h-1.94c-.11-2.65-.16-4.55-.12-5.6h0c-.36,1-1.2,2.69-2.57,5.6h-2l-.47-7.84Z"/><path class="a" d="M280.21,115a3.77,3.77,0,0,0,0,.57c0,1,.41,1.72,1.4,1.72a1.71,1.71,0,0,0,1.65-1.07h1.87a3.66,3.66,0,0,1-3.69,2.48,2.85,2.85,0,0,1-3.05-3.18c0-2.11,1.16-5,4.2-5a2.7,2.7,0,0,1,3,2.94,5.29,5.29,0,0,1-.2,1.5Zm3.58-1.23a2.45,2.45,0,0,0,0-.43,1.24,1.24,0,0,0-1.35-1.41c-1,0-1.7.68-2,1.84Z"/><path class="a" d="M286.81,113c.16-.77.32-1.6.45-2.32H289a12.74,12.74,0,0,1-.24,1.5,2.85,2.85,0,0,1,2.65-1.65l-.37,1.82a3,3,0,0,0-2.86,2.67l-.74,3.5h-1.8Z"/><path class="a" d="M292.71,115a3.77,3.77,0,0,0,0,.57c0,1,.41,1.72,1.4,1.72a1.71,1.71,0,0,0,1.65-1.07h1.87a3.65,3.65,0,0,1-3.68,2.48,2.85,2.85,0,0,1-3-3.18c0-2.11,1.15-5,4.19-5a2.7,2.7,0,0,1,3,2.94,5.29,5.29,0,0,1-.2,1.5Zm3.58-1.23a1.76,1.76,0,0,0,0-.43,1.24,1.24,0,0,0-1.35-1.41c-1,0-1.7.68-2,1.84Z"/><path class="a" d="M307.31,107.35l-1.9,9c-.15.72-.32,1.43-.44,2.14h-1.74c0-.27.08-.61.15-1a2.66,2.66,0,0,1-2.38,1.18c-1.68,0-2.58-1.22-2.58-3.09,0-2.36,1.42-5,4.14-5a2.21,2.21,0,0,1,2.08,1l.87-4.12Zm-7,8c0,1.16.48,1.77,1.4,1.77,1.38,0,2.1-1.2,2.41-2.84.29-1.44-.13-2.28-1.4-2.28C301.14,112,300.3,113.86,300.3,115.37Z"/><path class="a" d="M312.19,107.35H314l-.91,4.28a2.89,2.89,0,0,1,2.38-1.12c1.62,0,2.52,1.19,2.52,2.93,0,2.41-1.32,5.21-4.19,5.21a2,2,0,0,1-2-1c-.06.27-.15.67-.21.85h-1.76c.1-.47.26-1.19.45-2Zm3.92,6.27c0-1.06-.47-1.61-1.41-1.61-1.21,0-2,1-2.33,2.62s.08,2.53,1.35,2.53C315.42,117.16,316.11,115.06,316.11,113.62Z"/><path class="a" d="M320.36,110.66c.35,3.39.54,5.58.57,6.39h0c.41-.86,1.34-2.94,3.07-6.39h1.89l-4.31,8.22c-1.33,2.56-2.15,2.8-3.71,2.8a7.06,7.06,0,0,1-1-.1l.34-1.51a3.23,3.23,0,0,0,.69.07c1,0,1.29-.4,1.73-1.19l-1.09-8.29Z"/><path class="a" d="M328.69,118.5,330.93,108h2.41c.79,2.45,2.37,7.12,2.6,8.39h0c.16-1.23.58-3.1.94-4.83l.76-3.56h1.76l-2.24,10.55H334.9c-.71-2.24-2.41-7.54-2.64-8.72h0c-.2,1.34-.6,3.17-1,5.07l-.77,3.65Z"/><path class="a" d="M343,108l-1.38,6.49c-.41,1.92.41,2.71,1.85,2.71,1.6,0,2.21-.72,2.61-2.59l1.4-6.61h1.88L348,114.71c-.59,2.69-1.74,3.93-4.63,3.93-2.44,0-4.18-1.17-3.52-4.31l1.37-6.38Z"/><path class="a" d="M351.18,108H355c2.13,0,3.08,1.15,3.08,2.58a2.59,2.59,0,0,1-1.93,2.56,2.27,2.27,0,0,1,1.42,2.12c0,2.17-1.7,3.29-4.12,3.29H349ZM351.1,117h2.25c1.27,0,2.25-.58,2.25-1.82,0-.92-.55-1.51-1.94-1.51H351.8Zm3-4.8c1.19,0,2.07-.43,2.07-1.54s-.76-1.27-1.57-1.27h-1.88l-.59,2.81Z"/><path class="a" d="M362.2,108,360,118.5H358.1L360.33,108Z"/><path class="a" d="M371,115.26a4.61,4.61,0,0,1-4.75,3.38c-2.61,0-3.93-1.69-3.93-4.25,0-2.87,1.63-6.59,5.57-6.59,2.33,0,3.75,1.27,3.83,3.44h-1.95a1.87,1.87,0,0,0-2.08-1.93c-2.24,0-3.37,2.72-3.37,5.06,0,1.53.56,2.76,2.14,2.76a2.68,2.68,0,0,0,2.57-1.87Z"/><path class="a" d="M375.29,108l-1.38,6.49c-.41,1.92.41,2.71,1.85,2.71,1.6,0,2.21-.72,2.61-2.59l1.4-6.61h1.88l-1.44,6.76c-.59,2.69-1.74,3.93-4.63,3.93-2.44,0-4.18-1.17-3.52-4.31l1.37-6.38Z"/><path class="a" d="M382.94,115.32a2,2,0,0,0,2.23,1.87c1.23,0,2-.49,2-1.56,0-.87-.5-1.36-2-1.9-2.08-.73-2.84-1.56-2.84-2.85,0-1.64,1.16-3.08,3.73-3.08,2.41,0,3.64,1.29,3.67,3h-1.89c-.08-.79-.44-1.57-1.87-1.57-1.05,0-1.71.54-1.71,1.39,0,.63.34,1,1.77,1.55,2.15.77,3.11,1.65,3.11,3.17s-1,3.26-4.13,3.26c-2.56,0-3.88-1.33-3.94-3.33Z"/></svg>